<?xml version="1.0" encoding="UTF-8"?>
<svg version="1.1" xmlns="http://www.w3.org/2000/svg" width="64" height="64">
<path d="M0 0 C3.74876715 2.66739201 6.19631145 5.2051229 8.25 9.3125 C8.79035594 14.2377115 8.79435469 18.18191718 6.625 22.6875 C1.75401577 28.07121941 -1.53438359 29.37694804 -8.625 30.6875 C-14.3452832 31.76987917 -17.96580355 33.23575056 -22.296875 37.10546875 C-23.75 38.3125 -23.75 38.3125 -25.75 38.3125 C-25.75 34.6825 -25.75 31.0525 -25.75 27.3125 C-27.07 26.6525 -28.39 25.9925 -29.75 25.3125 C-32.43207492 23.00293548 -33.60413457 21.26937721 -34.140625 17.75 C-34.3141399 13.18903696 -34.09316172 10.03841902 -32.125 5.875 C-24.42122251 -2.43697045 -10.48096784 -4.93222016 0 0 Z M-27.125 8 C-29.07897254 10.78065323 -29.31205803 12.97064991 -29.1484375 16.34375 C-28.52537793 19.42239729 -26.96289435 21.16469078 -24.75 23.3125 C-24.09 23.6425 -23.43 23.9725 -22.75 24.3125 C-22.125 26.875 -22.125 26.875 -21.75 29.3125 C-20.780625 28.838125 -19.81125 28.36375 -18.8125 27.875 C-15.87383561 26.59007792 -13.38132764 26.09153069 -10.1875 25.875 C-5.79036199 25.50794759 -3.22014385 24.12166407 0.25 21.3125 C0.86875 20.879375 1.4875 20.44625 2.125 20 C4.09302109 17.04796836 3.71545688 14.7452445 3.25 11.3125 C0.40525003 7.00473576 -1.87042699 4.8541622 -6.75 3.3125 C-14.87556294 2.47041609 -20.43218261 3.24457712 -27.125 8 Z " fill="#5B64DA" transform="translate(39.75,9.6875)"/>
<path d="M0 0 C2.50696229 0.95091673 3.94401245 1.93801378 5.75 3.9375 C7.6740086 8.65132108 8.02416541 12.99924752 7 18 C5.38990092 20.24512544 3.60556451 22.02073785 1.625 23.94140625 C-1.19962174 27.51971311 -1.06335507 31.58324663 -1 36 C-3.42636759 34.84824323 -5.27319764 33.77712824 -7.375 32.0625 C-11.59328237 29.12379943 -16.68976285 28.7265538 -21.66015625 27.90625 C-25.30216045 26.91801026 -27.25038956 25.53650264 -30 23 C-27.75 21.375 -27.75 21.375 -25 20 C-23.65393856 20.64057851 -22.3220303 21.3111908 -21 22 C-18.58119188 22.34199703 -18.58119188 22.34199703 -16.0625 22.4375 C-11.98345095 22.76285989 -9.32279897 23.45252079 -6 26 C-5.773125 25.278125 -5.54625 24.55625 -5.3125 23.8125 C-4 21 -4 21 -1.375 18.6875 C1.15647634 15.82293467 1.34938899 15.34194357 1.375 11.75 C1.4206927 8.20961344 1.4206927 8.20961344 0 7 C-0.04092937 4.66702567 -0.04241723 2.33294775 0 0 Z " fill="#5B64DA" transform="translate(51,24)"/>
</svg>
